<svg width="673" height="24" viewBox="0 0 673 24" fill="none" xmlns="http://www.w3.org/2000/svg">
<path d="M3.50083 5.99997C20.5008 -2.00003 41.5008 13 69.5008 13C97.5008 13 119.001 3.5 130.501 3.5C159.001 3.5 159.001 15 187.501 16C216.001 17 238.001 20.5 253.001 13.5C268.001 6.49998 293.206 4.51423 323.001 13.5C354.501 23 380.001 5.99997 396.501 5.99997C427.001 5.99997 447.313 10.1162 465.501 13.5C487.001 17.5 496.288 18.9473 526.001 13.5C556.001 7.99999 575.001 18.5 590.001 18.5C610.501 18.5 619.501 7.99999 633.501 7.99999C647.501 7.99999 663.001 20 669.501 20" stroke="#F96E5B" stroke-width="7" stroke-linecap="round"/>
</svg>
